<svg xmlns="http://www.w3.org/2000/svg" width="50.456" height="44.829" viewBox="0 0 50.456 44.829">
  <g id="Group_81" data-name="Group 81" transform="translate(-146.515 -568.349)">
    <g id="Group_61" data-name="Group 61" transform="translate(146.851 580.691)">
      <path id="Path_88" data-name="Path 88" d="M147.826,595.549a.751.751,0,0,1-.516-1.3,36.815,36.815,0,0,1,4.68-3.94q.891-.63,1.764-1.268a.75.75,0,1,1,.885,1.212q-.883.644-1.782,1.281a35.248,35.248,0,0,0-4.514,3.805A.749.749,0,0,1,147.826,595.549Z" transform="translate(-147.075 -588.9)"/>
    </g>
    <g id="Group_62" data-name="Group 62" transform="translate(162.78 568.349)">
      <path id="Path_89" data-name="Path 89" d="M174.349,574.909a.751.751,0,0,1-.458-1.346c1.867-1.434,4.1-3.127,6.471-4.806a1.854,1.854,0,0,1,1.066-.408,1.785,1.785,0,0,1,.961.346c2.378,1.524,4.785,3.093,7.153,4.666a.751.751,0,0,1-.831,1.25c-2.361-1.568-4.761-3.133-7.131-4.651-.041-.026-.116-.074-.166-.1a2.124,2.124,0,0,0-.186.121c-2.354,1.665-4.568,3.346-6.424,4.771A.745.745,0,0,1,174.349,574.909Z" transform="translate(-173.598 -568.349)"/>
    </g>
    <g id="Group_63" data-name="Group 63" transform="translate(146.515 581.392)">
      <path id="Path_90" data-name="Path 90" d="M146.759,621.853l-.028-.726c-.324-8.6-.283-17.312.121-25.9a.751.751,0,0,1,1.5.07c-.391,8.3-.44,16.724-.147,25.046l47.26-.247-.074-23.574a1.616,1.616,0,0,0-.969-1.787q-2.306-1.665-4.633-3.306a.751.751,0,0,1,.866-1.227q2.332,1.645,4.646,3.316a3.017,3.017,0,0,1,1.591,3l.078,25.073Z" transform="translate(-146.515 -590.067)"/>
    </g>
    <g id="Group_64" data-name="Group 64" transform="translate(147.442 585.832)">
      <path id="Path_91" data-name="Path 91" d="M172.483,617.22a2.4,2.4,0,0,1-1.33-.507,203.99,203.99,0,0,1-22.849-17.9.751.751,0,0,1,1.008-1.113,202.483,202.483,0,0,0,22.679,17.766,1.365,1.365,0,0,0,.494.25c.12-.007.369-.245.489-.36a136.392,136.392,0,0,1,23.2-17.783.751.751,0,0,1,.8,1.271,134.927,134.927,0,0,0-22.965,17.6,2.34,2.34,0,0,1-1.44.774Z" transform="translate(-148.058 -597.461)"/>
    </g>
    <g id="Group_65" data-name="Group 65" transform="translate(147.721 599.11)">
      <path id="Path_92" data-name="Path 92" d="M149.273,632.959a.751.751,0,0,1-.423-1.371c5.4-3.681,10.7-7.667,15.734-11.845a.75.75,0,0,1,.958,1.155c-5.074,4.209-10.405,8.223-15.846,11.931A.752.752,0,0,1,149.273,632.959Z" transform="translate(-148.522 -619.57)"/>
    </g>
    <g id="Group_66" data-name="Group 66" transform="translate(178.605 598.022)">
      <path id="Path_93" data-name="Path 93" d="M217.3,632.235a.75.75,0,0,1-.422-.13c-5.415-3.691-11.557-8.784-16.491-12.878l-.171-.141a.751.751,0,0,1,.958-1.156l.17.141c4.911,4.074,11.023,9.142,16.379,12.792a.751.751,0,0,1-.423,1.371Z" transform="translate(-199.948 -617.758)"/>
    </g>
    <g id="Group_67" data-name="Group 67" transform="translate(153.222 573.409)">
      <path id="Path_94" data-name="Path 94" d="M158.434,595.785h-.017a.751.751,0,0,1-.734-.768c.1-4.579.275-11.3.54-17.332l.031-.708.709-.01c11.677-.163,23.541-.223,35.264-.181l.727,0,.02.726c.143,4.947.181,11.23.1,16.4a.75.75,0,0,1-.751.739h-.011a.752.752,0,0,1-.739-.762c.075-4.9.044-10.8-.082-15.6-11.238-.039-22.6.02-33.8.173-.247,5.83-.413,12.2-.508,16.591A.752.752,0,0,1,158.434,595.785Z" transform="translate(-157.683 -576.774)"/>
    </g>
    <g id="Group_68" data-name="Group 68" transform="translate(161.395 579.886)">
      <path id="Path_95" data-name="Path 95" d="M189.7,590.3a5.561,5.561,0,0,1-3.068-.906l-.12-.081a1.55,1.55,0,0,0-.457-.253h0a1.312,1.312,0,0,0-.3.148l-.13.075a4.369,4.369,0,0,1-3.4.336c-.159-.052-.315-.112-.471-.174a3.21,3.21,0,0,0-.646-.207,3.158,3.158,0,0,0-1.644.432,8.489,8.489,0,0,1-1.163.449,4.528,4.528,0,0,1-3.506-.48c-.07-.042-.14-.086-.209-.131a1.542,1.542,0,0,0-.467-.243,1.563,1.563,0,0,0-.746.3,3.5,3.5,0,0,1-1.193.505.751.751,0,0,1-.251-1.48,2.359,2.359,0,0,0,.684-.319,2.566,2.566,0,0,1,1.725-.495,2.654,2.654,0,0,1,1.062.466l.172.109a2.993,2.993,0,0,0,2.324.318,7.34,7.34,0,0,0,.958-.375,4.394,4.394,0,0,1,2.478-.544,4.447,4.447,0,0,1,.971.294c.126.05.252.1.381.141a2.843,2.843,0,0,0,2.213-.219l.107-.061a1.843,1.843,0,0,1,2.363.163l.107.072a4.071,4.071,0,0,0,3.811.333.751.751,0,1,1,.6,1.375A5.436,5.436,0,0,1,189.7,590.3Z" transform="translate(-171.292 -587.56)"/>
    </g>
    <g id="Group_69" data-name="Group 69" transform="translate(160.96 584.505)">
      <path id="Path_96" data-name="Path 96" d="M171.317,598.487A.751.751,0,0,1,171.18,597a19.887,19.887,0,0,0,4.523-1.419,2.267,2.267,0,0,1,2.826.385l.132.1a3.253,3.253,0,0,0,2.472.739,5.26,5.26,0,0,0,1.122-.428,3.5,3.5,0,0,1,3.657-.148,2.618,2.618,0,0,0,2.2.172c.194-.039.389-.079.582-.109a2.913,2.913,0,0,1,2.788.761.751.751,0,0,1-1.144.972c-.323-.379-1.091-.3-1.406-.252-.174.028-.348.064-.522.1a4.017,4.017,0,0,1-3.108-.271,3.167,3.167,0,0,0-.907-.306,3.1,3.1,0,0,0-1.506.443,6.453,6.453,0,0,1-1.461.539,4.664,4.664,0,0,1-3.663-1l-.144-.108a1.682,1.682,0,0,0-.732-.409,2.011,2.011,0,0,0-.545.184,21.455,21.455,0,0,1-4.89,1.537A.731.731,0,0,1,171.317,598.487Z" transform="translate(-170.567 -595.25)"/>
    </g>
  </g>
</svg>
