<svg viewBox="0 0 40 46" fill="none" xmlns="http://www.w3.org/2000/svg" data-evernote-id="260" class="js-evernote-checked">
<path d="M8.93103 13.9707C8.01296 13.1762 7.37229 12.183 7.00902 11.0243C6.85051 10.5012 6.29571 10.2033 5.76732 10.3688C5.24553 10.5277 4.95493 11.0839 5.11345 11.607C5.58239 13.1166 6.45423 14.4474 7.63649 15.4737C7.82143 15.6326 8.05259 15.712 8.28375 15.712C8.56115 15.712 8.83856 15.5995 9.0301 15.3744C9.39337 14.9572 9.34713 14.3282 8.93103 13.9707ZM8.32999 2.82735C7.91388 2.4632 7.28643 2.50954 6.92978 2.92667C5.93905 4.07875 5.23893 5.50229 4.9219 7.03839C4.80962 7.5747 5.15307 8.09777 5.68806 8.21033C5.75411 8.22357 5.82677 8.23019 5.89281 8.23019C6.34854 8.23019 6.76466 7.91237 6.85713 7.44227C7.11471 6.23723 7.65629 5.12488 8.42906 4.22441C8.78572 3.8139 8.73949 3.1849 8.32999 2.82735ZM21.9425 6.06509C21.4604 4.58857 20.5886 3.26434 19.4327 2.22483C19.0232 1.86067 18.3958 1.9004 18.0324 2.30429C17.6692 2.71479 17.7022 3.3438 18.1117 3.70797C19.01 4.50912 19.6837 5.54201 20.0601 6.68747C20.1989 7.1046 20.5886 7.36944 21.0046 7.36944C21.1037 7.36944 21.2094 7.3562 21.315 7.31647C21.8368 7.14433 22.1143 6.58816 21.9425 6.06509ZM15.3047 0.152421C13.7129 -0.112425 12.1674 -0.0329709 10.7804 0.397403C10.2586 0.562931 9.96799 1.1191 10.1265 1.64217C10.2586 2.06592 10.6548 2.34401 11.0776 2.34401C11.1701 2.34401 11.2692 2.32415 11.3682 2.29766C12.458 1.95999 13.6931 1.89378 14.981 2.11227C15.516 2.19835 16.0312 1.84081 16.117 1.29788C16.2095 0.754942 15.8463 0.245116 15.3047 0.152421Z" fill="#202F31" data-evernote-id="944" class="js-evernote-checked"></path>
<path d="M22.2001 10.6668C21.8765 12.2029 21.1632 13.6198 20.1262 14.7718C19.928 14.9903 19.6572 15.1029 19.3865 15.1029C19.1553 15.1029 18.9176 15.0169 18.726 14.8447C18.3231 14.4805 18.2901 13.8515 18.6533 13.441C19.4525 12.5472 20.0074 11.4481 20.2583 10.2695C20.3706 9.73319 20.8989 9.37565 21.4339 9.48821C21.9689 9.60077 22.319 10.1106 22.2067 10.6469" fill="#202F31" data-evernote-id="945" class="js-evernote-checked"></path>
<path d="M39.0093 28.557H36.1692V25.7033C36.1692 25.1537 35.72 24.7101 35.1785 24.7101H33.1375V21.7506C33.1375 21.6645 33.1244 21.5916 33.1112 21.5122C32.9394 19.8371 31.7242 18.0493 29.9673 17.8375C28.9369 17.7183 27.9 18.0361 27.1272 18.7247C27.1272 18.7313 27.1206 18.7314 27.1206 18.7314C26.4932 17.7579 25.5223 17.0628 24.2872 17.0628C23.4748 17.0628 22.7086 17.3342 22.0943 17.8109C21.6122 17.0363 20.8262 16.3146 19.4326 16.3146C18.924 16.3146 18.4353 16.4206 17.9928 16.6126V9.54118C17.9928 7.42242 16.4604 5.60161 14.4327 5.30366C13.2307 5.13151 12.0088 5.48906 11.0973 6.28358C10.1793 7.07812 9.65749 8.2302 9.65749 9.44186V16.745C9.65749 16.8045 9.6641 20.2872 9.70372 23.0416L7.53074 20.221C6.22959 18.5393 3.9113 18.0361 2.128 19.0491C1.06462 19.6517 0.318276 20.678 0.0805021 21.8697C-0.150666 23.0416 0.120127 24.2533 0.840051 25.2067L3.89147 30.0269C5.24546 32.1656 6.6721 34.4829 7.9138 36.9129C9.47254 39.9587 11.9626 42.4217 14.9281 43.8452C16.7973 44.7324 18.6995 45.1827 20.6016 45.1827C21.1234 45.1827 21.6387 45.1496 22.1538 45.0834C25.6477 44.6463 28.6596 42.7462 30.6344 40.0248H35.1785C35.72 40.0248 36.1692 39.5746 36.1692 39.0317V36.178H39.0093C39.5574 36.178 40 35.7343 40 35.1848V29.5502C40 29.0006 39.5574 28.557 39.0093 28.557ZM21.9094 43.1169C19.8685 43.3752 17.8078 43.0176 15.7801 42.0509C13.2043 40.8193 11.0379 38.6741 9.6773 36.0125C8.40256 33.5096 6.9495 31.1459 5.56249 28.961L2.49125 24.1077C2.49125 24.1077 2.45824 24.0547 2.43843 24.0348C2.04874 23.5316 1.89683 22.8827 2.02232 22.2604C2.15441 21.6247 2.53749 21.1017 3.1055 20.7773C3.42253 20.5984 3.77259 20.5124 4.12265 20.5124C4.80954 20.5124 5.50305 20.8368 5.95878 21.4327L9.98773 26.6701C10.2783 27.0475 10.8001 27.16 11.2228 26.9481C11.6125 26.7495 11.8238 26.3191 11.7512 25.8954C11.6984 25.2531 11.6521 19.6119 11.6389 17.4998V9.44186C11.6389 8.80623 11.9097 8.19709 12.3918 7.77996C12.8806 7.36282 13.5081 7.17744 14.1554 7.27014C15.2121 7.42242 16.0113 8.40235 16.0113 9.54118V18.963C16.0113 19.4331 16.3481 19.8436 16.8171 19.9364C17.2795 20.0224 17.7418 19.7709 17.9201 19.3272C18.1711 18.7048 18.7589 18.301 19.4326 18.301C20.1922 18.301 20.4233 18.7247 20.8196 19.7709L20.9385 20.0754C21.0904 20.4528 21.4537 20.7044 21.8632 20.7044C22.2727 20.7044 22.6293 20.4528 22.7812 20.0754C23.0256 19.453 23.62 19.0491 24.2872 19.0491C25.2977 19.0491 25.912 20.4329 25.912 21.4327C25.912 21.9757 26.3611 22.4259 26.9026 22.4259C27.4442 22.4259 27.8933 21.9757 27.8933 21.4327C27.8933 20.9626 28.0981 20.519 28.4416 20.2078C28.7982 19.8966 29.2606 19.751 29.7295 19.8105C30.4494 19.8966 31.1495 20.9361 31.1495 21.9028V23.6243C31.1495 23.6641 31.1495 23.7037 31.1562 23.7368V24.7101H29.5511C29.003 24.7101 28.5605 25.1537 28.5605 25.7033V28.557H25.7204C25.1722 28.557 24.7297 29.0006 24.7297 29.5502V35.1848C24.7297 35.7343 25.1722 36.178 25.7204 36.178H28.5605V39.0317C28.5605 39.1575 28.5802 39.2767 28.6265 39.3825C26.9688 41.3888 24.6108 42.7726 21.9094 43.1169ZM38.0185 34.1916H35.1785C34.6302 34.1916 34.1878 34.6352 34.1878 35.1848V38.0385H30.5419V35.1848C30.5419 34.6352 30.0994 34.1916 29.5511 34.1916H26.7111V30.5434H29.5511C30.0994 30.5434 30.5419 30.0931 30.5419 29.5502V26.6965H34.1878V29.5502C34.1878 30.0931 34.6302 30.5434 35.1785 30.5434H38.0185V34.1916Z" fill="#202F31" data-evernote-id="946" class="js-evernote-checked"></path>
</svg>