<svg xmlns="http://www.w3.org/2000/svg" viewBox="0 0 17 17">
  <defs>
    <style>
      .cls-1 {
        fill: none;
      }
 
      #CharmControlID42 .cls-2-6 {
        fill: inherit;
      }
    </style>
  </defs>
  <g id="class" transform="translate(0 17)">
    <path id="Path_98" data-name="Path 98" class="cls-2-6 js-evernote-checked" d="M13.132-8.16a5.14,5.14,0,0,1,.51,1.249,5.251,5.251,0,0,1,.17,1.332v.855L8.5-2.059,3.188-4.723q0-.5.012-.93A6.959,6.959,0,0,1,3.275-6.5a4.714,4.714,0,0,1,.2-.813,4.884,4.884,0,0,1,.394-.851L2.125-9.031v4.873a1.533,1.533,0,0,1,.436.232,1.607,1.607,0,0,1,.336.349,1.564,1.564,0,0,1,.216.436,1.6,1.6,0,0,1,.075.486V0H0V-2.656a1.6,1.6,0,0,1,.075-.486,1.564,1.564,0,0,1,.216-.436,1.607,1.607,0,0,1,.336-.349,1.533,1.533,0,0,1,.436-.232v-5.4L0-10.094l8.5-4.25,8.5,4.25ZM2.125-2.656a.511.511,0,0,0-.158-.374.511.511,0,0,0-.374-.158.511.511,0,0,0-.374.158.511.511,0,0,0-.158.374v1.594H2.125Zm.249-7.437L8.5-7.031l6.126-3.063L8.5-13.157ZM12.75-5.379a5.408,5.408,0,0,0-.125-1.191,4.177,4.177,0,0,0-.44-1.116L8.5-5.844,4.814-7.687A4.353,4.353,0,0,0,4.4-6.67,4.15,4.15,0,0,0,4.25-5.578v.2L8.5-3.254Z" transform="translate(0 0)" data-evernote-id="1305"></path>
  </g>
</svg>