<svg viewBox="0 0 34 42" fill="none" xmlns="http://www.w3.org/2000/svg" data-evernote-id="264" class="js-evernote-checked">
<path d="M16.9717 1.00125C16.9028 1.00582 16.8456 1.01904 16.8288 1.0301L2.65737 7.0763C2.52741 7.12871 2.42414 7.24483 2.38587 7.38163C1.53523 10.3551 1 12.9071 1 16.3496C1 28.2508 7.99104 38.59 16.8858 40.9854C16.9604 41.0049 17.0398 41.0049 17.1142 40.9854C26.009 38.5899 33 28.2508 33 16.3496C33 12.907 32.465 10.3551 31.6144 7.38163C31.5761 7.24507 31.4728 7.12871 31.3429 7.0763L17.1715 1.0301C17.1211 1.00221 17.0403 0.99716 16.9715 1.00125H16.9717ZM17.0001 1.96051L30.7717 7.83242C31.5789 10.6826 32.086 13.08 32.086 16.3498C32.086 27.8252 25.3224 37.7249 16.9999 40.0409C8.67806 37.7247 1.91387 27.8252 1.91387 16.3498C1.91387 13.0802 2.42096 10.6828 3.22818 7.83242L17.0001 1.96051ZM25.2288 14.4889C24.9944 14.5353 24.9781 14.6457 24.8859 14.707L14.2714 25.4911L9.10011 21.1163C8.92431 20.9175 8.5805 20.9237 8.41438 21.1307C8.24826 21.338 8.30214 21.6931 8.52874 21.8284L14.0146 26.4792C14.1895 26.6379 14.4697 26.6117 14.629 26.4504L25.5719 15.3172C25.8512 15.0557 25.5989 14.4676 25.2291 14.4888L25.2288 14.4889Z" fill="#202F31" stroke="#202F31" data-evernote-id="978" class="js-evernote-checked"></path>
</svg>