<svg width="30" height="30" viewBox="0 0 30 30" fill="none" xmlns="http://www.w3.org/2000/svg">
<path d="M14.7513 2.62989C18.6454 2.62989 19.1062 2.64494 20.6443 2.71498C22.0661 2.77982 22.8383 3.01716 23.3524 3.21688C23.9866 3.45039 24.5603 3.8233 25.0311 4.30808C25.5159 4.77896 25.8888 5.35265 26.1223 5.98686C26.3221 6.50091 26.5594 7.27314 26.6242 8.69489C26.6943 10.233 26.7093 10.6938 26.7093 14.588C26.7093 18.4821 26.6943 18.9429 26.6242 20.481C26.5594 21.9028 26.3221 22.675 26.1223 23.1891C25.8795 23.8179 25.5078 24.3889 25.0311 24.8655C24.5545 25.3422 23.9835 25.7139 23.3547 25.9567C22.8406 26.1565 22.0684 26.3938 20.6466 26.4586C19.1091 26.5287 18.6477 26.5437 14.7536 26.5437C10.8594 26.5437 10.398 26.5287 8.8605 26.4586C7.43875 26.3938 6.66651 26.1565 6.15246 25.9567C5.51826 25.7232 4.94456 25.3503 4.47369 24.8655C3.9889 24.3947 3.616 23.821 3.38248 23.1868C3.18277 22.6727 2.94543 21.9005 2.88059 20.4787C2.81054 18.9406 2.79549 18.4798 2.79549 14.5857C2.79549 10.6915 2.81054 10.2307 2.88059 8.69258C2.94543 7.27083 3.18277 6.49859 3.38248 5.98454C3.616 5.35034 3.9889 4.77664 4.47369 4.30577C4.94456 3.82098 5.51826 3.44808 6.15246 3.21456C6.66651 3.01485 7.43875 2.7775 8.8605 2.71267C10.3986 2.64262 10.8594 2.62757 14.7536 2.62757L14.7513 2.62989ZM14.7536 0C10.7928 0 10.2961 0.0167877 8.74067 0.0879909C7.1852 0.159194 6.12641 0.407537 5.19846 0.768184C4.22544 1.1343 3.34397 1.70819 2.61546 2.44985C1.87484 3.17865 1.30196 4.0601 0.936686 5.03285C0.573144 5.96081 0.326538 7.02075 0.255914 8.57275C0.18529 10.1247 0.167923 10.6249 0.167923 14.5857C0.167923 18.5464 0.184711 19.0431 0.255914 20.5986C0.327117 22.154 0.573144 23.2105 0.933791 24.1385C1.29991 25.1115 1.8738 25.9929 2.61546 26.7215C3.3441 27.4631 4.22553 28.0371 5.19846 28.4037C6.12468 28.7638 7.18635 29.0104 8.73835 29.0816C10.2903 29.1528 10.7905 29.169 14.7513 29.169C18.712 29.169 19.2087 29.1522 20.7642 29.0816C22.3196 29.011 23.3761 28.7638 24.3041 28.4037C25.2728 28.0289 26.1526 27.4559 26.8871 26.7215C27.6215 25.987 28.1945 25.1072 28.5693 24.1385C28.9294 23.2122 29.176 22.1506 29.2472 20.5986C29.3184 19.0466 29.3346 18.5464 29.3346 14.5857C29.3346 10.6249 29.3178 10.1282 29.2472 8.57275C29.1766 7.01727 28.9294 5.96081 28.5693 5.03285C28.2027 4.05992 27.6287 3.17849 26.8871 2.44985C26.1583 1.70923 25.2768 1.13635 24.3041 0.771078C23.3761 0.407537 22.3162 0.160931 20.7642 0.0903065C19.2122 0.0196822 18.712 0.00231555 14.7513 0.00231555L14.7536 0Z" fill="#FCFCFC"/>
<path d="M14.7512 7.09717C13.27 7.09717 11.822 7.53641 10.5905 8.35934C9.35887 9.18228 8.39898 10.3519 7.83217 11.7204C7.26535 13.0889 7.11708 14.5947 7.40609 16.0475C7.69511 17.5002 8.40843 18.8347 9.45585 19.882C10.5033 20.9294 11.8378 21.6426 13.2905 21.9315C14.7433 22.2204 16.2491 22.072 17.6176 21.5051C18.986 20.9381 20.1556 19.9782 20.9784 18.7465C21.8013 17.5149 22.2404 16.0669 22.2403 14.5857C22.2404 13.6022 22.0467 12.6283 21.6704 11.7197C21.294 10.8111 20.7424 9.98551 20.0469 9.29012C19.3515 8.59473 18.5259 8.04315 17.6172 7.66687C16.7086 7.2906 15.7347 7.09702 14.7512 7.09717V7.09717ZM14.7512 19.4466C13.7895 19.4466 12.8493 19.1614 12.0497 18.6271C11.25 18.0928 10.6268 17.3333 10.2587 16.4448C9.89067 15.5562 9.79437 14.5785 9.982 13.6353C10.1696 12.692 10.6327 11.8256 11.3128 11.1455C11.9929 10.4654 12.8593 10.0023 13.8026 9.8147C14.7458 9.62707 15.7235 9.72337 16.6121 10.0914C17.5006 10.4595 18.2601 11.0827 18.7944 11.8824C19.3287 12.682 19.6139 13.6222 19.6139 14.5839C19.6139 15.8736 19.1016 17.1104 18.1896 18.0223C17.2777 18.9343 16.0409 19.4466 14.7512 19.4466V19.4466Z" fill="#FCFCFC"/>
<path d="M22.5362 8.55086C23.5027 8.55086 24.2862 7.76737 24.2862 6.80088C24.2862 5.83439 23.5027 5.0509 22.5362 5.0509C21.5697 5.0509 20.7862 5.83439 20.7862 6.80088C20.7862 7.76737 21.5697 8.55086 22.5362 8.55086Z" fill="#FCFCFC"/>
</svg>
