<svg xmlns="http://www.w3.org/2000/svg" width="80" height="16" fill="none">
  <path fill="#FD902C" d="m8 0 2.59 4.44 5.02 1.09-3.43 3.83.52 5.11L8 12.4l-4.7 2.07.52-5.11L.39 5.53l5.02-1.09L8 0ZM24 0l2.59 4.44 5.02 1.09-3.43 3.83.52 5.11L24 12.4l-4.7 2.07.52-5.11-3.43-3.83 5.02-1.09L24 0ZM40 0l2.59 4.44 5.02 1.09-3.43 3.83.52 5.11L40 12.4l-4.7 2.07.52-5.11-3.43-3.83 5.02-1.09L40 0ZM56 0l2.59 4.44 5.02 1.09-3.43 3.83.52 5.11L56 12.4l-4.7 2.07.52-5.11-3.43-3.83 5.02-1.09L56 0Z"/>
  <path stroke="#FD902C" d="m72 1 2.15 3.7.12.18.21.05 4.18.9-2.85 3.2-.14.16.02.22.43 4.26-3.92-1.73-.2-.09-.2.1-3.92 1.72.43-4.26.02-.22-.14-.16-2.85-3.2 4.18-.9.21-.05.12-.19L72 1Z"/>
  <path fill="#FD902C" fill-rule="evenodd" d="m72 12.4-4.7 2.07.52-5.11-3.43-3.83 5.02-1.09L72 0v12.4Z" clip-rule="evenodd"/>
</svg>
