<svg viewBox="0 0 49 47" fill="none" xmlns="http://www.w3.org/2000/svg" data-evernote-id="262" class="js-evernote-checked">
<path d="M47.375 31.1L38.725 28.1C39.775 25.6499 40.3001 23.05 40.3001 20.35C40.3001 9.42499 31.4251 0.549988 20.5001 0.549988C9.57507 0.549988 0.700073 9.42499 0.700073 20.35C0.700073 31.275 9.57507 40.15 20.5001 40.15C23.925 40.15 27.3001 39.2499 30.2501 37.5749L33.0751 45.5C33.1501 45.6749 33.3 45.825 33.5001 45.825H33.5251C33.7001 45.825 33.8751 45.7251 33.9752 45.5499L36.9752 39.8999L42.3002 45.1249C42.5002 45.3249 42.8002 45.3249 43.0002 45.1249L46.9751 41.275C47.0751 41.1751 47.1252 41.0501 47.1252 40.9251C47.1252 40.8001 47.0752 40.65 46.9751 40.5751L41.6001 35.4001L47.4501 32C47.6251 31.9001 47.7252 31.725 47.7001 31.5251C47.7001 31.3253 47.5751 31.1503 47.3751 31.1002L47.375 31.1ZM20.525 39.175C10.15 39.175 1.72503 30.75 1.72503 20.375C1.72503 9.99999 10.15 1.57499 20.525 1.57499C30.9 1.57499 39.325 9.99999 39.325 20.375C39.325 22.95 38.7999 25.45 37.7999 27.775L26.2249 23.775C26.05 23.725 25.8499 23.7499 25.6999 23.9C25.5749 24.025 25.5249 24.2499 25.5749 24.4251L29.9499 36.6501C27.0999 38.3 23.8499 39.175 20.5249 39.175H20.525ZM40.55 34.875C40.425 34.95 40.3251 35.0999 40.3 35.25C40.275 35.4001 40.3251 35.55 40.4501 35.6749L45.9251 40.9499L42.6751 44.1L37.2251 38.75C37.1001 38.6501 36.95 38.6 36.8001 38.625C36.6501 38.6501 36.5002 38.75 36.4251 38.875L33.6501 44.125L26.8501 25.075L46.0251 31.7L40.55 34.875Z" fill="#202F31" stroke="#202F31" data-evernote-id="962" class="js-evernote-checked"></path>
<path d="M30.4001 12.275C30.2001 12.1 29.875 12.1249 29.7 12.325L17.7 26.225L11.575 20.1C11.375 19.8999 11.075 19.8999 10.875 20.1C10.675 20.3 10.675 20.6 10.875 20.8L17.375 27.3C17.4749 27.3999 17.5999 27.4501 17.7249 27.4501H17.75C17.9001 27.4501 18.0251 27.375 18.0999 27.2751L30.4499 13.0001C30.6249 12.7752 30.5998 12.475 30.4 12.2752L30.4001 12.275Z" fill="#202F31" stroke="#202F31" data-evernote-id="963" class="js-evernote-checked"></path>
</svg>